<svg width="474" height="98" viewBox="0 0 474 98" fill="none" xmlns="http://www.w3.org/2000/svg">
<path opacity="0.9375" d="M438.553 49.1304L472.936 14.7227L459.573 1.35999L411.802 49.1304L459.573 96.9008L472.936 83.5381L438.553 49.1304Z" stroke="#6C6777" stroke-width="0.8" stroke-miterlimit="10"/>
<path opacity="0.875" d="M411.104 49.1304L445.512 14.7227L432.149 1.35999L384.379 49.1304L432.149 96.9008L445.512 83.5381L411.104 49.1304Z" stroke="#6C6777" stroke-width="0.8" stroke-miterlimit="10"/>
<path opacity="0.8125" d="M383.676 49.1304L418.084 14.7227L404.721 1.35999L356.951 49.1304L404.721 96.9008L418.084 83.5381L383.676 49.1304Z" stroke="#6C6777" stroke-width="0.8" stroke-miterlimit="10"/>
<path opacity="0.75" d="M356.248 49.1304L390.655 14.7227L377.268 1.35999L329.522 49.1304L377.268 96.9008L390.655 83.5381L356.248 49.1304Z" stroke="#6C6777" stroke-width="0.8" stroke-miterlimit="10"/>
<path opacity="0.6875" d="M328.825 49.1304L363.232 14.7227L349.845 1.35999L302.074 49.1304L349.845 96.9008L363.232 83.5381L328.825 49.1304Z" stroke="#6C6777" stroke-width="0.8" stroke-miterlimit="10"/>
<path opacity="0.625" d="M301.396 49.1304L335.804 14.7227L322.416 1.35999L274.646 49.1304L322.416 96.9008L335.804 83.5381L301.396 49.1304Z" stroke="#6C6777" stroke-width="0.8" stroke-miterlimit="10"/>
<path opacity="0.5625" d="M273.973 49.1304L308.355 14.7227L294.993 1.35999L247.222 49.1304L294.993 96.9008L308.355 83.5381L273.973 49.1304Z" stroke="#6C6777" stroke-width="0.8" stroke-miterlimit="10"/>
<path opacity="0.5" d="M246.544 49.1304L280.927 14.7227L267.564 1.35999L219.794 49.1304L267.564 96.9008L280.927 83.5381L246.544 49.1304Z" stroke="#6C6777" stroke-width="0.8" stroke-miterlimit="10"/>
<path opacity="0.4375" d="M219.121 49.1304L253.503 14.7227L240.141 1.35999L192.37 49.1304L240.141 96.9008L253.503 83.5381L219.121 49.1304Z" stroke="#6C6777" stroke-width="0.8" stroke-miterlimit="10"/>
<path opacity="0.375" d="M191.667 49.1304L226.075 14.7227L212.712 1.35999L164.942 49.1304L212.712 96.9008L226.075 83.5381L191.667 49.1304Z" stroke="#6C6777" stroke-width="0.8" stroke-miterlimit="10"/>
<path opacity="0.3125" d="M164.244 49.1304L198.652 14.7227L185.289 1.35999L137.519 49.1304L185.289 96.9008L198.652 83.5381L164.244 49.1304Z" stroke="#6C6777" stroke-width="0.8" stroke-miterlimit="10"/>
<path opacity="0.25" d="M136.815 49.1304L171.223 14.7227L157.835 1.35999L110.09 49.1304L157.835 96.9008L171.223 83.5381L136.815 49.1304Z" stroke="#6C6777" stroke-width="0.8" stroke-miterlimit="10"/>
<path opacity="0.1875" d="M109.392 49.1304L143.8 14.7227L130.412 1.35999L82.6421 49.1304L130.412 96.9008L143.8 83.5381L109.392 49.1304Z" stroke="#6C6777" stroke-width="0.8" stroke-miterlimit="10"/>
<path opacity="0.125" d="M81.964 49.1304L116.372 14.7227L102.984 1.35999L55.2136 49.1304L102.984 96.9008L116.372 83.5381L81.964 49.1304Z" stroke="#6C6777" stroke-width="0.8" stroke-miterlimit="10"/>
<path opacity="0.0625" d="M54.5407 49.1304L88.9234 14.7227L75.5607 1.35999L27.7903 49.1304L75.5607 96.9008L88.9234 83.5381L54.5407 49.1304Z" stroke="#6C6777" stroke-width="0.8" stroke-miterlimit="10"/>
</svg>
