<svg width="114" height="158" viewBox="0 0 114 158" fill="none" xmlns="http://www.w3.org/2000/svg">
<g filter="url(#filter0_d_339_177)">
<path d="M9.99916 146.552C9.99916 145.145 8.85907 144.005 7.4527 144.005C6.04633 144.005 4.90625 145.145 4.90625 146.552C4.90625 147.958 6.04633 149.098 7.4527 149.098C8.85907 149.098 9.99916 147.958 9.99916 146.552Z" fill="white"/>
<path d="M9.99916 109.67C9.99916 108.263 8.85907 107.123 7.4527 107.123C6.04633 107.123 4.90625 108.263 4.90625 109.67C4.90625 111.076 6.04633 112.216 7.4527 112.216C8.85907 112.216 9.99916 111.076 9.99916 109.67Z" fill="white"/>
<path d="M9.99916 72.808C9.99916 71.4016 8.85907 70.2615 7.4527 70.2615C6.04633 70.2615 4.90625 71.4016 4.90625 72.808C4.90625 74.2143 6.04633 75.3544 7.4527 75.3544C8.85907 75.3544 9.99916 74.2143 9.99916 72.808Z" fill="white"/>
<path d="M9.99916 35.9464C9.99916 34.54 8.85907 33.3999 7.4527 33.3999C6.04633 33.3999 4.90625 34.54 4.90625 35.9464C4.90625 37.3528 6.04633 38.4929 7.4527 38.4929C8.85907 38.4929 9.99916 37.3528 9.99916 35.9464Z" fill="white"/>
<path d="M9.99916 -0.915174C9.99916 -2.32154 8.85907 -3.46163 7.4527 -3.46163C6.04633 -3.46163 4.90625 -2.32154 4.90625 -0.915174C4.90625 0.491196 6.04633 1.63129 7.4527 1.63129C8.85907 1.63129 9.99916 0.491196 9.99916 -0.915174Z" fill="white"/>
<path d="M34.775 146.552C34.775 145.145 33.635 144.005 32.2286 144.005C30.8222 144.005 29.6821 145.145 29.6821 146.552C29.6821 147.958 30.8222 149.098 32.2286 149.098C33.635 149.098 34.775 147.958 34.775 146.552Z" fill="white"/>
<path d="M34.775 109.67C34.775 108.263 33.635 107.123 32.2286 107.123C30.8222 107.123 29.6821 108.263 29.6821 109.67C29.6821 111.076 30.8222 112.216 32.2286 112.216C33.635 112.216 34.775 111.076 34.775 109.67Z" fill="white"/>
<path d="M34.775 72.808C34.775 71.4016 33.635 70.2615 32.2286 70.2615C30.8222 70.2615 29.6821 71.4016 29.6821 72.808C29.6821 74.2143 30.8222 75.3544 32.2286 75.3544C33.635 75.3544 34.775 74.2143 34.775 72.808Z" fill="white"/>
<path d="M34.775 35.9464C34.775 34.54 33.635 33.3999 32.2286 33.3999C30.8222 33.3999 29.6821 34.54 29.6821 35.9464C29.6821 37.3528 30.8222 38.4929 32.2286 38.4929C33.635 38.4929 34.775 37.3528 34.775 35.9464Z" fill="white"/>
<path d="M34.775 -0.915174C34.775 -2.32154 33.635 -3.46163 32.2286 -3.46163C30.8222 -3.46163 29.6821 -2.32154 29.6821 -0.915174C29.6821 0.491196 30.8222 1.63129 32.2286 1.63129C33.635 1.63129 34.775 0.491196 34.775 -0.915174Z" fill="white"/>
<path d="M59.5509 146.552C59.5509 145.145 58.4108 144.005 57.0045 144.005C55.5981 144.005 54.458 145.145 54.458 146.552C54.458 147.958 55.5981 149.098 57.0045 149.098C58.4108 149.098 59.5509 147.958 59.5509 146.552Z" fill="white"/>
<path d="M59.5509 109.67C59.5509 108.263 58.4108 107.123 57.0045 107.123C55.5981 107.123 54.458 108.263 54.458 109.67C54.458 111.076 55.5981 112.216 57.0045 112.216C58.4108 112.216 59.5509 111.076 59.5509 109.67Z" fill="white"/>
<path d="M59.5509 72.808C59.5509 71.4016 58.4108 70.2615 57.0045 70.2615C55.5981 70.2615 54.458 71.4016 54.458 72.808C54.458 74.2143 55.5981 75.3544 57.0045 75.3544C58.4108 75.3544 59.5509 74.2143 59.5509 72.808Z" fill="white"/>
<path d="M59.5509 35.9464C59.5509 34.54 58.4108 33.3999 57.0045 33.3999C55.5981 33.3999 54.458 34.54 54.458 35.9464C54.458 37.3528 55.5981 38.4929 57.0045 38.4929C58.4108 38.4929 59.5509 37.3528 59.5509 35.9464Z" fill="white"/>
<path d="M59.5509 -0.915174C59.5509 -2.32154 58.4108 -3.46163 57.0045 -3.46163C55.5981 -3.46163 54.458 -2.32154 54.458 -0.915174C54.458 0.491196 55.5981 1.63129 57.0045 1.63129C58.4108 1.63129 59.5509 0.491196 59.5509 -0.915174Z" fill="white"/>
<path d="M84.3263 146.552C84.3263 145.145 83.1862 144.005 81.7799 144.005C80.3735 144.005 79.2334 145.145 79.2334 146.552C79.2334 147.958 80.3735 149.098 81.7799 149.098C83.1862 149.098 84.3263 147.958 84.3263 146.552Z" fill="white"/>
<path d="M84.3263 109.67C84.3263 108.263 83.1862 107.123 81.7799 107.123C80.3735 107.123 79.2334 108.263 79.2334 109.67C79.2334 111.076 80.3735 112.216 81.7799 112.216C83.1862 112.216 84.3263 111.076 84.3263 109.67Z" fill="white"/>
<path d="M84.3263 72.808C84.3263 71.4016 83.1862 70.2615 81.7799 70.2615C80.3735 70.2615 79.2334 71.4016 79.2334 72.808C79.2334 74.2143 80.3735 75.3544 81.7799 75.3544C83.1862 75.3544 84.3263 74.2143 84.3263 72.808Z" fill="white"/>
<path d="M84.3263 35.9464C84.3263 34.54 83.1862 33.3999 81.7799 33.3999C80.3735 33.3999 79.2334 34.54 79.2334 35.9464C79.2334 37.3528 80.3735 38.4929 81.7799 38.4929C83.1862 38.4929 84.3263 37.3528 84.3263 35.9464Z" fill="white"/>
<path d="M84.3263 -0.915174C84.3263 -2.32154 83.1862 -3.46163 81.7799 -3.46163C80.3735 -3.46163 79.2334 -2.32154 79.2334 -0.915174C79.2334 0.491196 80.3735 1.63129 81.7799 1.63129C83.1862 1.63129 84.3263 0.491196 84.3263 -0.915174Z" fill="white"/>
<path d="M109.102 146.552C109.102 145.145 107.962 144.005 106.556 144.005C105.149 144.005 104.009 145.145 104.009 146.552C104.009 147.958 105.149 149.098 106.556 149.098C107.962 149.098 109.102 147.958 109.102 146.552Z" fill="white"/>
<path d="M109.102 109.67C109.102 108.263 107.962 107.123 106.556 107.123C105.149 107.123 104.009 108.263 104.009 109.67C104.009 111.076 105.149 112.216 106.556 112.216C107.962 112.216 109.102 111.076 109.102 109.67Z" fill="white"/>
<path d="M109.102 72.808C109.102 71.4016 107.962 70.2615 106.556 70.2615C105.149 70.2615 104.009 71.4016 104.009 72.808C104.009 74.2143 105.149 75.3544 106.556 75.3544C107.962 75.3544 109.102 74.2143 109.102 72.808Z" fill="white"/>
<path d="M109.102 35.9464C109.102 34.54 107.962 33.3999 106.556 33.3999C105.149 33.3999 104.009 34.54 104.009 35.9464C104.009 37.3528 105.149 38.4929 106.556 38.4929C107.962 38.4929 109.102 37.3528 109.102 35.9464Z" fill="white"/>
<path d="M109.102 -0.915174C109.102 -2.32154 107.962 -3.46163 106.556 -3.46163C105.149 -3.46163 104.009 -2.32154 104.009 -0.915174C104.009 0.491196 105.149 1.63129 106.556 1.63129C107.962 1.63129 109.102 0.491196 109.102 -0.915174Z" fill="white"/>
</g>
<defs>
<filter id="filter0_d_339_177" x="0.90625" y="-150.902" width="112.196" height="308" filterUnits="userSpaceOnUse" color-interpolation-filters="sRGB">
<feFlood flood-opacity="0" result="BackgroundImageFix"/>
<feColorMatrix in="SourceAlpha" type="matrix" values="0 0 0 0 0 0 0 0 0 0 0 0 0 0 0 0 0 0 127 0" result="hardAlpha"/>
<feOffset dy="4"/>
<feGaussianBlur stdDeviation="2"/>
<feComposite in2="hardAlpha" operator="out"/>
<feColorMatrix type="matrix" values="0 0 0 0 0 0 0 0 0 0 0 0 0 0 0 0 0 0 0.25 0"/>
<feBlend mode="normal" in2="BackgroundImageFix" result="effect1_dropShadow_339_177"/>
<feBlend mode="normal" in="SourceGraphic" in2="effect1_dropShadow_339_177" result="shape"/>
</filter>
</defs>
</svg>
