<svg width="97" height="241" viewBox="0 0 97 241" fill="none" xmlns="http://www.w3.org/2000/svg">
<path d="M21.8688 238.454C21.8688 237.047 20.7287 235.907 19.3223 235.907C17.916 235.907 16.7759 237.047 16.7759 238.454C16.7759 239.86 17.916 241 19.3223 241C20.7287 241 21.8688 239.86 21.8688 238.454Z" fill="white"/>
<path d="M21.8688 201.572C21.8688 200.165 20.7287 199.025 19.3223 199.025C17.916 199.025 16.7759 200.165 16.7759 201.572C16.7759 202.978 17.916 204.118 19.3223 204.118C20.7287 204.118 21.8688 202.978 21.8688 201.572Z" fill="white"/>
<path d="M21.8688 164.71C21.8688 163.304 20.7287 162.164 19.3223 162.164C17.916 162.164 16.7759 163.304 16.7759 164.71C16.7759 166.116 17.916 167.256 19.3223 167.256C20.7287 167.256 21.8688 166.116 21.8688 164.71Z" fill="white"/>
<path d="M21.8688 127.848C21.8688 126.442 20.7287 125.302 19.3223 125.302C17.916 125.302 16.7759 126.442 16.7759 127.848C16.7759 129.255 17.916 130.395 19.3223 130.395C20.7287 130.395 21.8688 129.255 21.8688 127.848Z" fill="white"/>
<path d="M21.8688 90.9869C21.8688 89.5805 20.7287 88.4404 19.3223 88.4404C17.916 88.4404 16.7759 89.5805 16.7759 90.9869C16.7759 92.3932 17.916 93.5333 19.3223 93.5333C20.7287 93.5333 21.8688 92.3932 21.8688 90.9869Z" fill="white"/>
<path d="M21.8688 54.1253C21.8688 52.7189 20.7287 51.5788 19.3223 51.5788C17.916 51.5788 16.7759 52.7189 16.7759 54.1253C16.7759 55.5317 17.916 56.6718 19.3223 56.6718C20.7287 56.6718 21.8688 55.5317 21.8688 54.1253Z" fill="white"/>
<path d="M19.3223 14.7202C20.7208 14.7202 21.8688 15.8682 21.8688 17.2666C21.8688 18.6651 20.7208 19.8131 19.3223 19.8131C17.9239 19.8131 16.7759 18.6651 16.7759 17.2666C16.7759 15.8682 17.903 14.7202 19.3223 14.7202Z" fill="white"/>
<path d="M46.6447 238.454C46.6447 237.047 45.5046 235.907 44.0982 235.907C42.6918 235.907 41.5518 237.047 41.5518 238.454C41.5518 239.86 42.6918 241 44.0982 241C45.5046 241 46.6447 239.86 46.6447 238.454Z" fill="white"/>
<path d="M46.6447 201.572C46.6447 200.165 45.5046 199.025 44.0982 199.025C42.6918 199.025 41.5518 200.165 41.5518 201.572C41.5518 202.978 42.6918 204.118 44.0982 204.118C45.5046 204.118 46.6447 202.978 46.6447 201.572Z" fill="white"/>
<path d="M46.6447 164.71C46.6447 163.304 45.5046 162.164 44.0982 162.164C42.6918 162.164 41.5518 163.304 41.5518 164.71C41.5518 166.116 42.6918 167.256 44.0982 167.256C45.5046 167.256 46.6447 166.116 46.6447 164.71Z" fill="white"/>
<path d="M46.6447 127.848C46.6447 126.442 45.5046 125.302 44.0982 125.302C42.6918 125.302 41.5518 126.442 41.5518 127.848C41.5518 129.255 42.6918 130.395 44.0982 130.395C45.5046 130.395 46.6447 129.255 46.6447 127.848Z" fill="white"/>
<path d="M46.6447 90.9869C46.6447 89.5805 45.5046 88.4404 44.0982 88.4404C42.6918 88.4404 41.5518 89.5805 41.5518 90.9869C41.5518 92.3932 42.6918 93.5333 44.0982 93.5333C45.5046 93.5333 46.6447 92.3932 46.6447 90.9869Z" fill="white"/>
<path d="M46.6447 54.1253C46.6447 52.7189 45.5046 51.5788 44.0982 51.5788C42.6918 51.5788 41.5518 52.7189 41.5518 54.1253C41.5518 55.5317 42.6918 56.6718 44.0982 56.6718C45.5046 56.6718 46.6447 55.5317 46.6447 54.1253Z" fill="white"/>
<path d="M44.0982 14.7202C45.4967 14.7202 46.6447 15.8682 46.6447 17.2666C46.6447 18.6651 45.4967 19.8131 44.0982 19.8131C42.6998 19.8131 41.5518 18.6651 41.5518 17.2666C41.5518 15.8682 42.6789 14.7202 44.0982 14.7202Z" fill="white"/>
<path d="M71.4201 238.454C71.4201 237.047 70.28 235.907 68.8736 235.907C67.4672 235.907 66.3271 237.047 66.3271 238.454C66.3271 239.86 67.4672 241 68.8736 241C70.28 241 71.4201 239.86 71.4201 238.454Z" fill="white"/>
<path d="M71.4201 201.572C71.4201 200.165 70.28 199.025 68.8736 199.025C67.4672 199.025 66.3271 200.165 66.3271 201.572C66.3271 202.978 67.4672 204.118 68.8736 204.118C70.28 204.118 71.4201 202.978 71.4201 201.572Z" fill="white"/>
<path d="M71.4201 164.71C71.4201 163.304 70.28 162.164 68.8736 162.164C67.4672 162.164 66.3271 163.304 66.3271 164.71C66.3271 166.116 67.4672 167.256 68.8736 167.256C70.28 167.256 71.4201 166.116 71.4201 164.71Z" fill="white"/>
<path d="M71.4201 127.848C71.4201 126.442 70.28 125.302 68.8736 125.302C67.4672 125.302 66.3271 126.442 66.3271 127.848C66.3271 129.255 67.4672 130.395 68.8736 130.395C70.28 130.395 71.4201 129.255 71.4201 127.848Z" fill="white"/>
<path d="M71.4201 90.9869C71.4201 89.5805 70.28 88.4404 68.8736 88.4404C67.4672 88.4404 66.3271 89.5805 66.3271 90.9869C66.3271 92.3932 67.4672 93.5333 68.8736 93.5333C70.28 93.5333 71.4201 92.3932 71.4201 90.9869Z" fill="white"/>
<path d="M71.4201 54.1253C71.4201 52.7189 70.28 51.5788 68.8736 51.5788C67.4672 51.5788 66.3271 52.7189 66.3271 54.1253C66.3271 55.5317 67.4672 56.6718 68.8736 56.6718C70.28 56.6718 71.4201 55.5317 71.4201 54.1253Z" fill="white"/>
<path d="M68.8736 14.7202C70.2721 14.7202 71.4201 15.8682 71.4201 17.2666C71.4201 18.6651 70.2721 19.8131 68.8736 19.8131C67.4751 19.8131 66.3271 18.6651 66.3271 17.2666C66.3271 15.8682 67.4543 14.7202 68.8736 14.7202Z" fill="white"/>
<path d="M96.1959 238.454C96.1959 237.047 95.0559 235.907 93.6495 235.907C92.2431 235.907 91.103 237.047 91.103 238.454C91.103 239.86 92.2431 241 93.6495 241C95.0559 241 96.1959 239.86 96.1959 238.454Z" fill="white"/>
<path d="M96.1959 201.572C96.1959 200.165 95.0559 199.025 93.6495 199.025C92.2431 199.025 91.103 200.165 91.103 201.572C91.103 202.978 92.2431 204.118 93.6495 204.118C95.0559 204.118 96.1959 202.978 96.1959 201.572Z" fill="white"/>
<path d="M96.1959 164.71C96.1959 163.304 95.0559 162.164 93.6495 162.164C92.2431 162.164 91.103 163.304 91.103 164.71C91.103 166.116 92.2431 167.256 93.6495 167.256C95.0559 167.256 96.1959 166.116 96.1959 164.71Z" fill="white"/>
<path d="M96.1959 127.848C96.1959 126.442 95.0559 125.302 93.6495 125.302C92.2431 125.302 91.103 126.442 91.103 127.848C91.103 129.255 92.2431 130.395 93.6495 130.395C95.0559 130.395 96.1959 129.255 96.1959 127.848Z" fill="white"/>
<path d="M96.1959 90.9869C96.1959 89.5805 95.0559 88.4404 93.6495 88.4404C92.2431 88.4404 91.103 89.5805 91.103 90.9869C91.103 92.3932 92.2431 93.5333 93.6495 93.5333C95.0559 93.5333 96.1959 92.3932 96.1959 90.9869Z" fill="white"/>
<path d="M96.1959 54.1253C96.1959 52.7189 95.0559 51.5788 93.6495 51.5788C92.2431 51.5788 91.103 52.7189 91.103 54.1253C91.103 55.5317 92.2431 56.6718 93.6495 56.6718C95.0559 56.6718 96.1959 55.5317 96.1959 54.1253Z" fill="white"/>
<path d="M93.6495 14.7202C95.048 14.7202 96.1959 15.8682 96.1959 17.2666C96.1959 18.6651 95.048 19.8131 93.6495 19.8131C92.251 19.8131 91.103 18.6651 91.103 17.2666C91.103 15.8682 92.2302 14.7202 93.6495 14.7202Z" fill="white"/>
</svg>
